<?xml version="1.0" standalone="no"?>
<!DOCTYPE svg PUBLIC "-//W3C//DTD SVG 20010904//EN"
 "http://www.w3.org/TR/2001/REC-SVG-20010904/DTD/svg10.dtd">
<svg version="1.0" xmlns="http://www.w3.org/2000/svg"
 width="300.000000pt" height="125.000000pt" viewBox="0 0 300.000000 125.000000"
 preserveAspectRatio="xMidYMid meet">
<metadata>
Created by potrace 1.10, written by Peter Selinger 2001-2011
</metadata>
<g transform="translate(0.000000,125.000000) scale(0.100000,-0.100000)"
fill="#000000" stroke="none">
<path d="M1000 991 c0 -12 84 -73 135 -99 22 -11 81 -32 130 -47 50 -14 100
-33 113 -41 33 -22 27 1 -12 39 -24 24 -51 38 -88 47 -102 24 -205 60 -242 85
-20 13 -36 20 -36 16z"/>
<path d="M1981 986 c-18 -21 -105 -56 -206 -81 -98 -24 -134 -42 -159 -80 -22
-34 -20 -40 7 -22 13 8 64 27 113 42 49 15 114 40 144 56 63 34 128 85 119 93
-3 4 -11 0 -18 -8z"/>
<path d="M1039 886 c37 -39 132 -84 237 -112 55 -14 108 -31 119 -37 19 -10
19 -9 4 14 -10 15 -36 30 -70 40 -30 10 -93 29 -140 43 -47 14 -102 37 -123
51 -46 32 -56 32 -27 1z"/>
<path d="M1925 880 c-27 -16 -102 -44 -166 -62 -108 -31 -171 -59 -159 -71 3
-3 54 8 115 24 115 32 208 75 246 115 28 30 26 30 -36 -6z"/>
<path d="M1399 845 c29 -34 31 -40 31 -120 0 -80 -2 -86 -31 -120 -40 -45 -18
-46 27 -1 26 26 34 42 34 70 0 35 1 36 40 36 39 0 40 -1 40 -36 0 -28 8 -44
34 -70 45 -45 67 -44 27 1 -29 34 -31 40 -31 120 0 80 2 86 31 120 39 45 22
46 -25 1 -28 -26 -36 -41 -36 -70 0 -35 -1 -36 -40 -36 -39 0 -40 1 -40 36 0
29 -8 44 -36 70 -47 45 -64 44 -25 -1z"/>
<path d="M1165 769 c12 -18 86 -47 165 -64 40 -8 75 -13 77 -11 9 8 -35 25
-107 42 -40 9 -89 23 -107 31 -23 9 -32 10 -28 2z"/>
<path d="M1804 766 c-17 -8 -64 -21 -104 -30 -72 -17 -116 -34 -107 -42 15
-16 226 50 241 75 9 13 8 13 -30 -3z"/>
<path d="M1305 666 c38 -17 105 -28 105 -16 0 12 -23 19 -82 25 -51 5 -52 5
-23 -9z"/>
<path d="M1665 675 c-5 -2 -22 -6 -37 -9 -16 -4 -28 -11 -28 -17 0 -12 61 -3
105 16 l30 13 -30 0 c-16 0 -34 -1 -40 -3z"/>
<path d="M1020 455 c0 -30 5 -55 10 -55 6 0 10 17 10 38 l1 37 18 -34 19 -35
16 32 c21 40 28 41 24 2 -2 -16 2 -30 7 -32 6 -2 11 21 13 50 4 60 -17 73 -38
22 -7 -16 -17 -30 -22 -30 -5 0 -15 14 -21 30 -19 50 -37 37 -37 -25z"/>
<path d="M1191 487 c-45 -49 17 -110 74 -73 30 20 33 56 7 79 -26 24 -55 21
-81 -6z m73 -19 c15 -24 -13 -53 -43 -43 -21 6 -29 43 -14 59 12 12 45 2 57
-16z"/>
<path d="M1320 501 c0 -6 14 -11 30 -13 l31 -3 -31 -37 c-17 -21 -30 -38 -28
-38 46 -7 98 -7 98 0 0 5 -14 10 -30 12 l-31 3 31 43 32 42 -51 0 c-28 0 -51
-4 -51 -9z"/>
<path d="M1452 458 c3 -52 20 -69 26 -28 5 29 50 28 54 -2 6 -43 23 -23 26 31
2 40 0 52 -10 49 -7 -3 -13 -13 -13 -24 0 -13 -8 -20 -27 -22 -24 -3 -28 0
-28 22 0 17 -6 26 -16 26 -12 0 -14 -10 -12 -52z"/>
<path d="M1600 461 c0 -46 1 -49 32 -55 64 -13 106 53 56 88 -12 9 -37 16 -55
16 -33 0 -33 0 -33 -49z m83 7 c13 -20 -6 -48 -34 -48 -15 0 -19 7 -19 36 0
31 3 35 21 32 12 -2 27 -10 32 -20z"/>
<path d="M1749 508 c0 -2 -2 -24 -3 -50 -1 -44 0 -47 28 -52 42 -9 66 -7 66 4
0 6 -16 10 -35 10 -24 0 -35 5 -35 15 0 9 9 15 25 15 14 0 25 4 25 9 0 4 -11
6 -25 3 -18 -3 -25 0 -25 12 0 12 9 16 35 16 19 0 35 5 35 10 0 8 -88 15 -91
8z"/>
<path d="M1880 455 c0 -30 5 -55 10 -55 6 0 10 11 10 25 0 21 5 25 30 25 25 0
30 -4 30 -25 0 -14 5 -25 10 -25 6 0 10 25 10 55 0 30 -4 55 -10 55 -5 0 -10
-11 -10 -25 0 -21 -5 -25 -30 -25 -25 0 -30 4 -30 25 0 14 -4 25 -10 25 -5 0
-10 -25 -10 -55z"/>
<path d="M140 242 c0 -22 -45 -139 -61 -158 -9 -11 -6 -14 18 -14 26 0 30 3
30 30 0 39 8 46 41 34 21 -7 27 -16 27 -37 -1 -26 1 -27 49 -27 46 0 48 1 33
18 -8 9 -26 52 -39 94 l-23 78 -37 0 c-30 0 -38 -4 -38 -18z m38 -60 c11 -32
10 -33 -11 -26 -30 9 -29 7 -17 39 12 32 13 31 28 -13z"/>
<path d="M335 165 l0 -97 78 4 c68 3 82 6 98 27 27 33 25 93 -5 128 -21 25
-32 28 -97 31 l-74 4 0 -97z m119 53 c23 -32 20 -91 -4 -113 -34 -31 -50 -13
-50 58 0 35 3 67 7 70 12 13 32 7 47 -15z"/>
<path d="M591 236 c8 -16 8 -46 2 -95 l-9 -71 30 0 c23 0 27 3 18 12 -14 14
-16 128 -2 128 6 0 10 -6 10 -14 0 -7 7 -31 16 -52 l16 -39 23 51 c12 28 31
54 41 58 15 6 17 5 7 -5 -7 -7 -13 -36 -13 -64 0 -28 -5 -56 -12 -63 -9 -9 -2
-12 33 -12 l44 0 -5 76 c-3 41 -2 84 2 95 7 17 3 19 -37 19 -41 0 -45 -2 -45
-24 0 -14 -5 -28 -11 -32 -14 -9 -30 16 -25 39 3 14 -3 17 -45 17 -47 0 -48
-1 -38 -24z"/>
<path d="M848 248 c16 -16 16 -150 0 -166 -9 -9 -1 -12 35 -12 42 0 47 2 39
18 -13 25 -15 128 -2 152 10 19 8 20 -37 20 -36 0 -44 -3 -35 -12z"/>
<path d="M975 165 l0 -95 30 0 c22 0 26 3 17 12 -7 7 -12 39 -12 77 l1 66 35
-40 c60 -68 68 -83 54 -100 -11 -13 -7 -15 25 -15 32 0 36 2 25 14 -7 10 -10
43 -8 95 3 78 2 81 -19 81 -20 0 -21 -3 -12 -32 5 -17 6 -34 3 -37 -8 -8 -44
38 -44 55 0 10 -14 14 -47 14 l-48 0 0 -95z"/>
</g>
</svg>
